<?xml version="1.0" encoding="utf-8"?>
<!-- Generator: Adobe Illustrator 19.0.0, SVG Export Plug-In . SVG Version: 6.00 Build 0)  -->
<svg version="1.1" id="Capa_1" xmlns="http://www.w3.org/2000/svg" xmlns:xlink="http://www.w3.org/1999/xlink" x="0px" y="0px"
	 viewBox="-89 0 612 612" style="enable-background:new -89 0 612 612;" xml:space="preserve">
<style type="text/css">
	.st0{fill:#FFFFFF;}
</style>
<g>
	<g>
		<path class="st0" d="M523,306C523,137,386,0,217,0C48,0-89,137-89,306c0,169,137,306,306,306C386,612,523,475,523,306z M-61.2,306
			C-61.2,152.4,63.4,27.8,217,27.8S495.2,152.4,495.2,306S370.6,584.2,217,584.2S-61.2,459.6-61.2,306z"/>
		<path class="st0" d="M228.7,482.6V306H287l9.2-58.5h-67.5v-29.3c0-15.3,5-29.8,26.9-29.8h43.8v-58.4h-62.2
			c-52.3,0-66.6,34.4-66.6,82.2v35.4h-35.9V306h35.9v176.6H228.7L228.7,482.6z"/>
	</g>
</g>
</svg>
