<?xml version="1.0" encoding="utf-8"?>
<!-- Generator: Adobe Illustrator 19.0.0, SVG Export Plug-In . SVG Version: 6.00 Build 0)  -->
<svg version="1.1" id="Capa_1" xmlns="http://www.w3.org/2000/svg" xmlns:xlink="http://www.w3.org/1999/xlink" x="0px" y="0px"
	 viewBox="-89 0 612 612" style="enable-background:new -89 0 612 612;" xml:space="preserve">
<style type="text/css">
	.st0{fill:#FFFFFF;}
</style>
<g>
	<g>
		<path class="st0" d="M260.1,402.3c0-30-17.4-44.8-36.5-60.9L208,329.1c-4.8-3.9-11.3-9.1-11.3-18.7c0-9.6,6.5-15.7,12.2-21.3
			c18.2-14.4,36.5-29.6,36.5-61.8c0-33.1-20.9-50.5-30.9-58.7l0,0h27l27.8-15.7h-89.6c-23.5,0-53,3.5-77.9,23.9
			C83.1,193,74,215.2,74,235.2c0,33.9,26.1,68.3,72.2,68.3c4.4,0,9.1-0.4,13.9-0.9c-2.2,5.2-4.3,9.6-4.3,17c0,13.5,7,21.8,13,29.6
			c-19.6,1.3-56.1,3.5-83.1,20c-25.7,15.2-33.5,37.4-33.5,53.1c0,32.2,30.5,62.2,93.5,62.2C220.6,484.5,260.1,443.1,260.1,402.3z
			 M166.6,291.3c-37.4,0-54.4-48.3-54.4-77.4c0-11.3,2.2-23,9.6-32.2c7-8.7,19.1-14.4,30.5-14.4c36.1,0,54.8,48.7,54.8,80
			c0,7.8-0.9,21.8-10.9,31.8C189.2,286.1,177.5,291.3,166.6,291.3z M167.1,466.2c-46.5,0-76.6-22.2-76.6-53s27.8-41.3,37.4-44.8
			c18.3-6.1,41.8-7,45.7-7c4.3,0,6.5,0,10,0.4c33.1,23.5,47.4,35.2,47.4,57.4C231,446.2,208.8,466.2,167.1,466.2z"/>
		<polygon class="st0" points="264.1,317.8 311.2,317.8 311.2,364.8 334.7,364.8 334.7,317.8 381.8,317.8 381.8,294.2 334.7,294.2 
			334.7,247.2 311.2,247.2 311.2,294.2 264.1,294.2 		"/>
		<path class="st0" d="M523,306C523,137,386,0,217,0C48,0-89,137-89,306c0,169,137,306,306,306C386,612,523,475,523,306z M-61.2,306
			C-61.2,152.4,63.4,27.8,217,27.8S495.2,152.4,495.2,306S370.6,584.2,217,584.2S-61.2,459.6-61.2,306z"/>
	</g>
</g>
</svg>
