<?xml version="1.0" encoding="utf-8"?>
<!-- Generator: Adobe Illustrator 19.0.0, SVG Export Plug-In . SVG Version: 6.00 Build 0)  -->
<svg version="1.1" id="Capa_1" xmlns="http://www.w3.org/2000/svg" xmlns:xlink="http://www.w3.org/1999/xlink" x="0px" y="0px"
	 viewBox="-89 0 612 612" style="enable-background:new -89 0 612 612;" xml:space="preserve">
<style type="text/css">
	.st0{fill:#FFFFFF;}
</style>
<g>
	<g>
		<path class="st0" d="M348.2,245.2c0-3.1-0.1-6.1-0.2-9.2c13.2-9.8,24.7-22.2,33.7-36.3c-12.1,5.5-25.1,9.1-38.8,10.6
			c14-8.6,24.7-22.3,29.7-38.8c-13.1,7.9-27.5,13.6-42.9,16.6c-12.3-14-29.9-22.9-49.4-23.3c-37.3-0.6-67.6,30.9-67.6,70.5
			c0,5.6,0.6,11.1,1.8,16.3c-56.2-3.6-106-32.9-139.4-77c-5.8,10.6-9.2,22.9-9.2,36.2c0,25,11.9,47.3,30.1,60.4
			c-11.1-0.5-21.5-3.9-30.6-9.4c0,0.3,0,0.6,0,0.9c0,35,23.3,64.3,54.2,71.2c-5.7,1.6-11.7,2.4-17.8,2.4c-4.4,0-8.6-0.5-12.7-1.4
			c8.6,28.7,33.6,49.6,63.1,50.3c-23.1,19.2-52.3,30.7-84,30.6c-5.5,0-10.8-0.4-16.1-1c29.9,20.5,65.5,32.5,103.6,32.5
			C280.2,447.3,348.2,339,348.2,245.2z"/>
		<path class="st0" d="M523,306C523,137,386,0,217,0C48,0-89,137-89,306c0,169,137,306,306,306C386,612,523,475,523,306z M-61.2,306
			C-61.2,152.4,63.4,27.8,217,27.8S495.2,152.4,495.2,306S370.6,584.2,217,584.2S-61.2,459.6-61.2,306z"/>
	</g>
</g>
</svg>
